<svg height="512pt" viewBox="-147 0 512 512" width="512pt" xmlns="http://www.w3.org/2000/svg"><path d="m189.734375 279.105469c-15.367187 53.300781-10.507813 110.023437 13.6875 159.71875l7.050781 14.453125v58.722656h-210.472656v-58.722656l7.050781-14.453125c24.195313-49.695313 29.054688-106.417969 13.6875-159.71875l-10.8125-37.488281c-6.582031-22.828126-9.925781-46.472657-9.925781-70.28125v-103.769532h210.472656v103.769532c0 23.808593-3.34375 47.449218-9.925781 70.28125zm0 0" fill="#f0e7df"/><path d="m189.734375 279.105469c-15.367187 53.300781-10.507813 110.023437 13.6875 159.71875l7.050781 14.453125v58.722656h-104.574218v-444.433594h104.574218v103.769532c0 23.808593-3.34375 47.449218-9.925781 70.28125zm0 0" fill="#dfcdbd"/><path d="m134.316406 154.667969-28.421875-8.757813 44.964844-145.910156h67.644531v29.738281h-45.691406zm0 0" fill="#ff8900"/><path d="m189.734375 279.105469c-15.367187 53.300781-10.507813 110.023437 13.6875 159.71875l6.921875 14.195312h-210.214844l6.917969-14.195312c24.199219-49.695313 29.054687-106.417969 13.691406-159.71875l-10.816406-37.488281c-6.582031-22.828126-9.921875-46.472657-9.921875-70.28125v-25.507813h210.46875v25.507813c0 23.808593-3.339844 47.453124-9.921875 70.28125zm0 0" fill="#83e46f"/><path d="m189.734375 279.105469c-15.367187 53.300781-10.507813 110.023437 13.6875 159.71875l6.921875 14.195312h-104.445312v-307.191406h104.574218v25.507813c0 23.808593-3.34375 47.449218-9.925781 70.28125zm0 0" fill="#00c800"/></svg>