<svg height="512pt" viewBox="-127 0 512 512" width="512pt" xmlns="http://www.w3.org/2000/svg"><path d="m258.222656 98.351562v96.4375h-258.21874975v-96.4375c0-33.070312 26.90624975-59.980468 59.98828175-59.980468 4.28125 0 8.519531.449218 12.660156 1.339844 8.328125-23.132813 30.5-39.710938 56.460937-39.710938 25.960938 0 48.128907 16.578125 56.457031 39.710938 4.140626-.890626 8.382813-1.339844 12.660157-1.339844 33.082031 0 59.992187 26.910156 59.992187 59.980468zm0 0" fill="#00ad00"/><path d="m258.222656 98.351562v96.4375h-129.109375v-194.789062c25.957031 0 48.128907 16.578125 56.457031 39.710938 4.140626-.890626 8.382813-1.339844 12.660157-1.339844 33.082031 0 59.992187 26.910156 59.992187 59.980468zm0 0" fill="#009100"/><path d="m204.089844 158.660156v106.949219h-149.957032v-106.949219l1.96875-3.449218c14.929688-26.171876 42.910157-42.421876 73.011719-42.421876 30.097657 0 58.078125 16.25 73.007813 42.421876zm0 0" fill="#ff633e"/><path d="m204.089844 158.660156v106.949219h-74.976563v-152.820313c30.097657 0 58.078125 16.25 73.007813 42.421876zm0 0" fill="#e70020"/><path d="m236.085938 99.25-117.105469 107.269531 13.988281 15.269531-102.96875 104.902344v-4.59375h-30v189.902344h258.222656v-412.75zm0 0" fill="#ff8900"/><path d="m258.222656 315.5v196.5h-258.21874975v-413.75h21.03906275l108.070312 98.988281zm0 0" fill="#ffb74d"/><g fill="#ffec97"><path d="m44.894531 229.953125h29.609375v29.609375h-29.609375zm0 0"/><path d="m109.3125 290.820312h29.597656v29.609376h-29.597656zm0 0"/><path d="m36.589844 339.339844h29.609375v29.605468h-29.609375zm0 0"/><path d="m109.3125 385.5h29.597656v29.609375h-29.597656zm0 0"/></g><path d="m201.308594 203.195312h29.605468v29.609376h-29.605468zm0 0" fill="#ffb74d"/><path d="m258.222656 315.5v196.5h-129.109375v-314.761719zm0 0" fill="#ffaa20"/><path d="m129.113281 290.820312h9.796875v29.609376h-9.796875zm0 0" fill="#ffe670"/><path d="m129.113281 385.5h9.796875v29.609375h-9.796875zm0 0" fill="#ffe670"/><path d="m178.808594 351.417969h29.605468v29.609375h-29.605468zm0 0" fill="#ffe670"/><path d="m.00390625 441h258.21874975v71h-258.21874975zm0 0" fill="#ffaa20"/><path d="m129.113281 441h129.109375v71h-129.109375zm0 0" fill="#ff8900"/></svg>