<svg height="512pt" viewBox="0 0 512 512" width="512pt" xmlns="http://www.w3.org/2000/svg"><path d="m463.761719 238.757812v205.859376h-415.523438v-214.800782l199.496094-106.871094 6.675781 12.332032 1.589844-.308594 111.550781-21.730469 6.660157-13.441406c24.46875 12.132813 44.417968 27.949219 59.289062 47.019531 20.078125 25.75 30.261719 56.691406 30.261719 91.941406zm0 0" fill="#ffdb2d"/><path d="m463.5 229.339844h-414.371094l206.871094-110.820313 65.671875-35.179687 52.539063 16.457031c24.46875 12.132813 44.417968 27.949219 59.289062 47.019531 18.269531 23.429688 28.328125 51.160156 30 82.523438zm0 0" fill="#8a6744"/><path d="m48.238281 297.15625h415.523438v61.273438h-415.523438zm0 0" fill="#ffaa20"/><path d="m0 414.617188h512v97.222656h-512zm0 0" fill="#c8ad92"/><path d="m463.761719 238.757812v205.859376h-207.761719v-309.648438l111.550781-21.730469 6.660157-13.441406c24.46875 12.132813 44.417968 27.949219 59.289062 47.019531 20.078125 25.75 30.261719 56.691406 30.261719 91.941406zm0 0" fill="#fec000"/><path d="m463.5 229.339844h-207.5v-110.820313l65.671875-35.179687 52.539063 16.457031c24.46875 12.132813 44.417968 27.949219 59.289062 47.019531 18.269531 23.429688 28.328125 51.160156 30 82.523438zm0 0" fill="#644b31"/><path d="m256 297.15625h207.761719v61.273438h-207.761719zm0 0" fill="#ff8900"/><path d="m256 414.617188h256v97.222656h-256zm0 0" fill="#bd9b7b"/><path d="m308.359375 83.335938c-.199219-1.675782-1.769531-16.878907 4.851563-34.554688 6.253906-16.695312 21.09375-38.714844 56.269531-48.78125l8.253906 28.84375c-18.164063 5.195312-30.292969 15.105469-36.039063 29.453125-4.519531 11.289063-3.542968 21.488281-3.53125 21.59375l-.015624-.125zm0 0" fill="#00c800"/><path d="m323.253906 34.542969c-37.082031 0-67.253906 30.167969-67.253906 67.253906 0 37.082031 30.171875 67.253906 67.253906 67.253906 37.085938 0 67.253906-30.171875 67.253906-67.253906 0-37.085937-30.167968-67.253906-67.253906-67.253906zm0 0" fill="#e70020"/></svg>