<svg height="512pt" viewBox="-68 0 512 512" width="512pt" xmlns="http://www.w3.org/2000/svg"><path d="m28.050781 0h320.71875v90.328125h-320.71875zm0 0" fill="#c8ad92"/><path d="m348.789062 120.671875-44.199218 391.328125h-232.359375l-44.199219-391.328125zm0 0" fill="#ffaa20"/><path d="m0 60.328125h376.820312v90.34375h-376.820312zm0 0" fill="#8a6744"/><path d="m188.410156 0h160.359375v90.328125h-160.359375zm0 0" fill="#bd9b7b"/><path d="m348.789062 120.671875-44.199218 391.328125h-116.179688v-391.328125zm0 0" fill="#ff8900"/><path d="m188.410156 60.328125h188.410156v90.34375h-188.410156zm0 0" fill="#644b31"/><path d="m270.910156 293.5c0 17.25-9.570312 33.738281-26.261718 45.230469-15.226563 10.488281-35.199219 16.269531-56.238282 16.269531-21.039062 0-41.011718-5.78125-56.238281-16.269531-16.691406-11.492188-26.261719-27.980469-26.261719-45.230469s9.570313-33.738281 26.261719-45.230469c15.226563-10.488281 35.199219-16.269531 56.238281-16.269531 21.039063 0 41.011719 5.78125 56.238282 16.269531 16.691406 11.492188 26.261718 27.980469 26.261718 45.230469zm0 0" fill="#ffec97"/><path d="m270.910156 293.5c0 17.25-9.570312 33.738281-26.261718 45.230469-15.226563 10.488281-35.199219 16.269531-56.238282 16.269531v-123c21.039063 0 41.011719 5.78125 56.238282 16.269531 16.691406 11.492188 26.261718 27.980469 26.261718 45.230469zm0 0" fill="#ffe670"/></svg>