<svg height="512pt" viewBox="0 -73 512 512" width="512pt" xmlns="http://www.w3.org/2000/svg"><path d="m305.5 49.5c0 11.359375-3.949219 22.460938-11.121094 31.261719l-11.628906-9.472657h-53.5l-11.628906 9.472657c-7.171875-8.800781-11.121094-19.902344-11.121094-31.261719 0-27.289062 22.210938-49.5 49.5-49.5s49.5 22.210938 49.5 49.5zm0 0" fill="#8a6744"/><path d="m282.75 71.289062h-26.75v-71.289062c27.289062 0 49.5 22.210938 49.5 49.5 0 11.359375-3.949219 22.460938-11.121094 31.261719zm0 0" fill="#644b31"/><path d="m484.5 283.121094h-457c0-61.042969 23.769531-118.421875 66.929688-161.582032 43.148437-43.148437 100.539062-66.917968 161.570312-66.917968s118.421875 23.769531 161.570312 66.917968c43.160157 43.160157 66.929688 100.539063 66.929688 161.582032zm0 0" fill="#dfcdbd"/><path d="m484.5 283.121094h-228.5v-228.5c61.03125 0 118.421875 23.769531 161.570312 66.917968 43.160157 43.160157 66.929688 100.539063 66.929688 161.582032zm0 0" fill="#c8ad92"/><path d="m0 273.371094h512v92.628906h-512zm0 0" fill="#c8ad92"/><path d="m256 273.371094h256v92.628906h-256zm0 0" fill="#bd9b7b"/></svg>