<svg height="511pt" viewBox="-52 1 511 511.99995" width="511pt" xmlns="http://www.w3.org/2000/svg"><path d="m297.25 100.46875c0 55.398438-45.074219 100.46875-100.46875 100.46875-55.398438 0-100.46875-45.070312-100.46875-100.46875s45.070312-100.46875 100.46875-100.46875c55.394531 0 100.46875 45.070312 100.46875 100.46875zm0 0" fill="#ffdb2d"/><path d="m196.78125 200.9375v-200.9375c55.394531 0 100.46875 45.070312 100.46875 100.46875s-45.074219 100.46875-100.46875 100.46875zm0 0" fill="#fec000"/><path d="m294.554688 106.003906 91.195312-105.488281 22.683594 19.609375-91.195313 105.488281zm0 0" fill="#644b31"/><path d="m126.128906 85.476562c-58.246094 0-105.628906 47.382813-105.628906 105.628907v14.992187h211.257812v-14.992187c0-58.246094-47.382812-105.628907-105.628906-105.628907zm0 0" fill="#ff633e"/><path d="m373.058594 191.101562v14.992188h-211.253906v-14.992188c0-31.097656 13.511718-59.105468 34.976562-78.449218 18.730469-16.890625 43.5-27.175782 70.648438-27.175782 58.246093 0 105.628906 47.390626 105.628906 105.625zm0 0" fill="#83e46f"/><path d="m373.058594 191.101562v14.992188h-176.277344v-93.441406c18.730469-16.890625 43.5-27.175782 70.648438-27.175782 58.246093 0 105.628906 47.390626 105.628906 105.625zm0 0" fill="#00c800"/><path d="m393.058594 176.109375v14.992187c0 18.574219-2.589844 36.546876-7.4375 53.578126-2.9375 10.367187-6.714844 20.390624-11.253906 29.988281-24.25 51.308593-70.09375 90.492187-125.738282 105.746093v41.984376c27.359375.867187 49.328125 23.390624 49.328125 50.949218v38.652344h-202.355469v-38.652344c0-27.558594 21.96875-50.082031 49.328126-50.949218v-41.984376c-55.644532-15.253906-101.488282-54.4375-125.738282-105.746093-4.539062-9.597657-8.316406-19.621094-11.253906-29.988281-4.847656-17.03125-7.4375-35.003907-7.4375-53.578126v-14.992187zm0 0" fill="#f0e7df"/><path d="m385.621094 244.679688c-1.570313 5.539062-3.378906 10.984374-5.425782 16.3125-1.769531 4.648437-3.71875 9.207031-5.828124 13.675781h-355.175782c-4.539062-9.597657-8.316406-19.621094-11.253906-29.988281zm0 0" fill="#ffaa20"/><path d="m393.058594 176.109375v14.992187c0 18.574219-2.589844 36.546876-7.4375 53.578126-2.9375 10.367187-6.714844 20.390624-11.253906 29.988281-24.25 51.308593-70.09375 90.492187-125.738282 105.746093v41.984376c27.359375.867187 49.328125 23.390624 49.328125 50.949218v38.652344h-101.175781v-335.890625zm0 0" fill="#dfcdbd"/><path d="m385.621094 244.679688c-1.570313 5.539062-3.378906 10.984374-5.425782 16.3125-1.769531 4.648437-3.71875 9.207031-5.828124 13.675781h-177.585938v-29.988281zm0 0" fill="#ff8900"/></svg>