<svg height="512pt" viewBox="-6 0 512 512" width="512pt" xmlns="http://www.w3.org/2000/svg"><path d="m499.332031 442.59375-12.996093 7.339844c-71.808594 40.566406-153.5625 62.027344-236.410157 62.066406h-.261719c-82.9375 0-164.78125-21.460938-236.667968-62.066406l-12.996094-7.339844 55.601562-98.566406 87.632813-155.339844 58.398437-103.535156 48.03125-85.152344.261719.457031 101.730469 180.359375 57.574219 102.0625 34.5 61.148438zm0 0" fill="#ffec97"/><path d="m499.332031 442.59375-12.996093 7.339844c-71.808594 40.566406-153.5625 62.027344-236.410157 62.066406v-511.542969l101.730469 180.359375 57.574219 102.0625 34.5 61.148438zm0 0" fill="#ffe670"/><path d="m292.382812 323.765625h29.875v29.878906h-29.875zm0 0" fill="#009100"/><path d="m249.664062 204.09375h29.878907v29.878906h-29.878907zm0 0" fill="#009100"/><path d="m499.332031 442.59375-12.996093 7.339844c-71.808594 40.566406-153.5625 62.027344-236.410157 62.066406h-.261719c-82.9375 0-164.78125-21.460938-236.667968-62.066406l-12.996094-7.339844 55.601562-98.566406c59.019532 33.273437 125.765626 50.785156 194.0625 50.785156h.261719c68.210938-.042969 134.855469-17.550781 193.804688-50.785156zm0 0" fill="#ffaa20"/><path d="m272.371094 303.355469c0 19.0625-8.753906 36.113281-22.445313 47.355469-10.566406 8.675781-24.082031 13.894531-38.792969 13.894531-33.769531 0-61.246093-27.476563-61.246093-61.25 0-33.769531 27.476562-61.25 61.246093-61.25 14.710938 0 28.226563 5.21875 38.792969 13.894531 13.691407 11.242188 22.445313 28.292969 22.445313 47.355469zm0 0" fill="#ff633e"/><path d="m409.230469 282.878906c-11.164063 11.683594-26.878907 18.964844-44.265625 18.964844-33.761719 0-61.238282-27.46875-61.238282-61.242188 0-29.199218 20.542969-53.699218 47.929688-59.785156zm0 0" fill="#e70020"/><path d="m246.480469 144.160156c0 33.769532-27.476563 61.246094-61.25 61.246094-16.242188 0-31.035157-6.351562-42-16.71875l58.402343-103.535156c25.835938 7.179687 44.847657 30.910156 44.847657 59.007812zm0 0" fill="#ff633e"/><path d="m249.925781 350.710938v-94.710938c13.691407 11.242188 22.445313 28.292969 22.445313 47.355469s-8.753906 36.113281-22.445313 47.355469zm0 0" fill="#e70020"/><path d="m499.332031 442.59375-12.996093 7.339844c-71.808594 40.566406-153.5625 62.027344-236.410157 62.066406v-117.1875c68.210938-.042969 134.855469-17.550781 193.804688-50.785156zm0 0" fill="#ff8900"/></svg>