<svg height="512pt" viewBox="0 0 512 512" width="512pt" xmlns="http://www.w3.org/2000/svg"><path d="m196.753906 140.765625-25.191406-16.289063-.066406.105469c.417968-.671875 10.109375-16.566406.703125-28.980469-17.675781-23.335937-8.738281-50.863281-.667969-63.449218l25.253906 16.191406.066406-.101562c-.421874.679687-10.171874 16.789062-.738281 29.242187 17.699219 23.363281 8.730469 50.773437.640625 63.28125zm0 0" fill="#c8ad92"/><path d="m263.921875 140.769531-7.910156-5.121093-4.691407-3.027344-12.640624-8.070313c.640624-1.019531 15.601562-25.300781.691406-44.992187-27.671875-36.527344-1.792969-77.820313-.679688-79.558594l17.320313 11.101562 7.9375 5.089844c-.597657.957032-15.621094 25.527344-.667969 45.257813 27.699219 36.5625 1.757812 77.589843.640625 79.320312zm0 0" fill="#c8ad92"/><path d="m338.230469 140.757812-25.195313-16.289062-.066406.105469c.417969-.671875 10.113281-16.566407.707031-28.980469-17.675781-23.335938-8.738281-50.863281-.671875-63.449219l25.257813 16.191407.0625-.101563c-.417969.679687-10.167969 16.789063-.734375 29.242187 17.695312 23.363282 8.726562 50.769532.640625 63.28125zm0 0" fill="#bd9b7b"/><path d="m512 204.671875v15c0 15.957031-1.46875 31.777344-4.390625 47.269531-1.890625 10.160156-4.398437 20.179688-7.507813 30-6.460937 20.46875-15.511718 40.097656-27.011718 58.457032-24.761719 39.511718-59.78125 71.542968-101.28125 92.632812l-3.199219 1.617188h-225.21875l-3.199219-1.617188c-41.5-21.089844-76.519531-53.121094-101.28125-92.632812-11.5-18.359376-20.550781-37.988282-27.011718-58.457032-3.109376-9.820312-5.617188-19.839844-7.507813-30-2.921875-15.492187-4.390625-31.3125-4.390625-47.269531v-15zm0 0" fill="#83e46f"/><path d="m512 204.671875v15c0 15.957031-1.46875 31.777344-4.390625 47.269531-1.890625 10.160156-4.398437 20.179688-7.507813 30-6.460937 20.46875-15.511718 40.097656-27.011718 58.457032-24.761719 39.511718-59.78125 71.542968-101.28125 92.632812l-3.199219 1.617188h-112.597656v-244.976563zm0 0" fill="#00c800"/><path d="m263.921875 140.769531-7.910156-5.121093v-124.546876l7.9375 5.089844c-.597657.957032-15.621094 25.527344-.667969 45.257813 27.699219 36.5625 1.757812 77.589843.640625 79.320312zm0 0" fill="#bd9b7b"/><path d="m131.988281 443.578125h248.023438v68.28125h-248.023438zm0 0" fill="#00ad00"/><path d="m256.011719 443.578125h124v68.28125h-124zm0 0" fill="#009100"/><path d="m507.609375 266.941406c-1.890625 10.160156-4.398437 20.179688-7.507813 30h-488.203124c-3.109376-9.820312-5.617188-19.839844-7.507813-30zm0 0" fill="#00ad00"/><path d="m507.609375 266.941406c-1.890625 10.160156-4.398437 20.179688-7.507813 30h-244.089843v-30zm0 0" fill="#009100"/></svg>